<svg width="60" height="60" viewBox="0 0 60 60" fill="none" xmlns="http://www.w3.org/2000/svg">
<path d="M44.652 47.3146H44.4278V47.1882H45.0314V47.3146H44.8087V47.9456H44.652V47.3146ZM45.856 47.3476H45.8525L45.6303 47.9457H45.5287L45.3079 47.3476H45.3052V47.9457H45.1575V47.1883H45.3748L45.5795 47.7246L45.7835 47.1883H46V47.9457H45.8559V47.3476H45.856Z" fill="#E11F21"/>
<path d="M24.5799 31.8272C24.5799 31.8272 23.0199 32.7417 25.6901 33.0512C28.925 33.4233 30.5783 33.3699 34.1432 32.6897C34.1432 32.6897 35.0804 33.2822 36.3894 33.7953C28.3979 37.2482 18.303 33.5953 24.5799 31.8272ZM23.6034 27.3214C23.6034 27.3214 21.8537 28.6271 24.5259 28.9057C27.9815 29.2651 30.7105 29.2945 35.4326 28.3779C35.4326 28.3779 36.0858 29.0454 37.1128 29.4104C27.4506 32.2588 16.6886 29.6351 23.6034 27.3214Z" fill="#0B6FB6"/>
<path d="M31.8358 19.6781C33.8049 21.9636 31.3184 24.0202 31.3184 24.0202C31.3184 24.0202 36.3183 21.4181 34.0221 18.1597C31.8775 15.121 30.2328 13.6112 39.1362 8.40565C39.1362 8.40565 25.1608 11.9244 31.8358 19.6781Z" fill="#E11F21"/>
<path d="M42.4052 35.1599C42.4052 35.1599 43.5596 36.1189 41.1338 36.8607C36.521 38.2695 21.9348 38.6949 17.8828 36.9168C16.4262 36.278 19.1577 35.3915 20.0169 35.2055C20.913 35.0096 21.4251 35.0461 21.4251 35.0461C19.8052 33.8957 10.9549 37.305 16.9296 38.2813C33.2233 40.9452 46.6316 37.0818 42.4052 35.1599ZM25.3301 22.6529C25.3301 22.6529 17.9106 24.4294 22.7027 25.0746C24.726 25.3477 28.7595 25.2859 32.5166 24.9685C35.5871 24.7074 38.6703 24.1523 38.6703 24.1523C38.6703 24.1523 37.5876 24.6197 36.8043 25.1589C29.27 27.1566 14.715 26.2272 18.9052 24.1839C22.4488 22.457 25.3301 22.6529 25.3301 22.6529ZM38.6397 30.153C46.2987 26.1407 42.7575 22.285 40.2858 22.8044C39.6799 22.9315 39.4098 23.0417 39.4098 23.0417C39.4098 23.0417 39.6347 22.6865 40.0643 22.5327C44.9541 20.7997 48.7148 27.6443 38.4858 30.3552C38.4858 30.3553 38.6043 30.2485 38.6397 30.153Z" fill="#0B6FB6"/>
<path d="M34.0221 0C34.0221 0 38.2637 4.27759 29.999 10.8554C23.3715 16.1318 28.4877 19.1403 29.9962 22.5777C26.1277 19.0589 23.2886 15.9613 25.1933 13.0784C27.9888 8.84652 35.7334 6.79475 34.0221 0Z" fill="#E11F21"/>
<path d="M26.0827 41.0253C33.4344 41.4997 44.7238 40.7621 44.9912 37.2552C44.9912 37.2552 44.4772 38.5846 38.9154 39.6404C32.6405 40.8308 24.9014 40.6919 20.3113 39.9289C20.3114 39.9289 21.2509 40.7129 26.0827 41.0253Z" fill="#0B6FB6"/>
<path d="M24.8779 54.4252C24.1843 55.0317 23.4518 55.3721 22.7945 55.3721C21.8563 55.3721 21.3494 54.805 21.3494 53.8952C21.3494 52.9112 21.8925 52.1918 24.0714 52.1918H24.8777V54.4252M26.7915 56.6019V49.8641C26.7915 48.1429 25.8178 47.0071 23.4699 47.0071C22.0992 47.0071 20.8986 47.3483 19.9227 47.7835L20.2044 48.9761C20.9727 48.6919 21.9673 48.4272 22.9435 48.4272C24.296 48.4272 24.8779 48.9762 24.8779 50.1111V50.9627H24.2028C20.9167 50.9627 19.4344 52.2487 19.4344 54.1789C19.4344 55.8446 20.4113 56.7915 22.2505 56.7915C23.4328 56.7915 24.3154 56.2994 25.1404 55.5793L25.2901 56.602H26.7915V56.6019ZM33.1781 56.6019H30.7914L27.9189 47.1777H30.0032L31.7856 52.968L32.1818 54.7094C33.0835 52.1916 33.7212 49.6373 34.0402 47.1777H36.0677C35.5245 50.2811 34.547 53.6874 33.1781 56.6019M42.3341 54.4252C41.6393 55.0317 40.9055 55.3721 40.2482 55.3721C39.3116 55.3721 38.8034 54.805 38.8034 53.8952C38.8034 52.9112 39.3478 52.1918 41.5265 52.1918H42.3341L42.3341 54.4252ZM44.2476 56.6019V49.8641C44.2476 48.1429 43.2714 47.0071 40.9263 47.0071C39.5546 47.0071 38.3535 47.3483 37.3781 47.7835L37.6594 48.9761C38.428 48.6919 39.4245 48.4272 40.3999 48.4272C41.7514 48.4272 42.3341 48.9762 42.3341 50.1111V50.9627H41.658C38.3709 50.9627 36.8892 52.2487 36.8892 54.1789C36.8892 55.8446 37.8653 56.7915 39.7043 56.7915C40.8872 56.7915 41.7694 56.2994 42.5959 55.5793L42.7462 56.602H44.2476V56.6019ZM17.3361 58.2024C16.7906 59.0053 15.9095 59.6406 14.9448 60L14 58.8791C14.7342 58.4993 15.3639 57.8859 15.6565 57.3145C15.9096 56.8064 16.0143 56.1515 16.0143 54.5853V43.8261H18.0475V54.4379C18.0474 56.5317 17.8813 57.3775 17.3361 58.2024Z" fill="#E11F21"/>
</svg>
